<svg width="814" height="826" viewBox="0 0 814 826" fill="none" xmlns="http://www.w3.org/2000/svg">
<path d="M271.108 268.094C319.505 198.894 388.931 159.712 439.88 138.766C395.3 133.519 349.784 138.931 306.524 155.235C282.533 164.282 260.506 176.287 240.608 190.607C244.033 206.969 252.183 235.38 271.108 268.094Z" fill="black"/>
<path d="M621.633 556.595C616.963 582.98 610.308 606.818 603.609 626.732C682.675 550.049 713.692 430.897 672.802 321.494L672.639 321.06C670.439 315.198 667.997 309.472 665.446 303.813C649.824 302.539 617.726 302.591 576.827 317.169C622.434 382.156 637.954 464.436 621.633 556.595Z" fill="black"/>
<path d="M406.59 396.905C501.159 288.957 595.697 269.421 646.068 267.862C414.73 267.862 646.068 267.862 414.73 267.862C408.399 264.989 511.512 156.864 505.055 154.476C472.85 162.89 355.592 199.556 292.546 300.249C317.489 333.034 353.811 367.446 406.59 396.905Z" fill="black"/>
<path d="M547.87 668.798C558.521 647.591 644.297 466.498 543.329 331.705C508.451 349.577 469.546 378.256 430.274 423.959C434.288 441.485 441.992 481.81 441.213 530.568C440.098 600.302 421.766 660.292 387.845 706.533C427.357 709.004 467.315 703.185 505.506 688.851L505.907 688.701C520.652 683.14 534.634 676.43 547.87 668.798Z" fill="black"/>
<path d="M391.31 621.22C301.797 607.766 222.254 558.492 160.257 477.745C144.653 457.42 131.888 437.403 121.689 419.415C121.257 453.662 126.947 488.519 139.626 522.443L139.788 522.877C166.45 593.913 219.119 650.316 288.167 681.653C307.127 690.258 326.713 696.611 346.608 700.864C368.18 676.909 382.312 649.401 391.31 621.22Z" fill="black"/>
<path d="M399.932 586.447C412.415 518.08 400.193 452.736 395.37 431.433C268.893 363.242 225.15 267.661 210.234 215.791C170.444 253.842 142.625 302.57 129.732 355.475C139.208 377.606 158.386 416.952 189.223 456.908C246.942 531.697 317.777 575.195 399.932 586.447Z" fill="black"/>
<path d="M800.864 317.779L719.49 338.62C750.185 458.425 711.749 582.928 618.727 663.6C483.923 780.506 279.307 765.946 162.389 631.129C45.47 496.311 60.0079 291.693 194.811 174.787C305.177 79.0747 461.786 71.7246 579.365 145.19L507.949 223.7L734.429 222.062L711.739 0L636.277 83.401C487.407 -18.182 282.799 -12.028 140.113 111.715C-29.377 258.702 -47.6802 516.314 99.3227 685.822C246.326 855.329 503.936 873.66 673.425 726.673C790.885 624.807 838.983 468.442 800.864 317.779Z" fill="black"/>
</svg>
